<svg width="720" height="900" viewBox="0 0 720 900" fill="none" xmlns="http://www.w3.org/2000/svg">
  <rect width="720" height="900" rx="56" fill="#FFFDF9"/>
  <rect x="92" y="96" width="536" height="708" rx="42" fill="#F4E8E0"/>
  <path d="M223 246c0-58 47-105 105-105h64c58 0 105 47 105 105v405c0 68-55 123-123 123h-28c-68 0-123-55-123-123V246Z" fill="#F6D8D0"/>
  <path d="M257 279c0-41 33-74 74-74h58c41 0 74 33 74 74v360c0 54-44 98-98 98h-10c-54 0-98-44-98-98V279Z" fill="#FFF9F4"/>
  <path d="M270 309c0-38 31-69 69-69h42c38 0 69 31 69 69v33c-63 34-122 34-180 0v-33Z" fill="#FFFDF9"/>
  <path d="M276 353c56 29 111 29 168 0" stroke="#8E1F3F" stroke-width="10" stroke-linecap="round"/>
  <circle cx="565" cy="728" r="30" fill="#8E1F3F" fill-opacity=".15"/>
</svg>
