<svg width="720" height="900" viewBox="0 0 720 900" fill="none" xmlns="http://www.w3.org/2000/svg">
  <rect width="720" height="900" rx="56" fill="#FFF7F1"/>
  <rect x="94" y="98" width="532" height="704" rx="42" fill="#F2E4DC"/>
  <path d="M225 247c0-58 47-105 105-105h60c58 0 105 47 105 105v406c0 68-55 123-123 123h-24c-68 0-123-55-123-123V247Z" fill="#F5D3C9"/>
  <path d="M260 282c0-41 33-74 74-74h52c41 0 74 33 74 74v357c0 54-44 98-98 98h-4c-54 0-98-44-98-98V282Z" fill="#FFFDF9"/>
  <circle cx="343" cy="376" r="13" fill="#8E1F3F"/>
  <path d="M374 422c42 3 68 25 79 65" stroke="#8E1F3F" stroke-width="8" stroke-linecap="round"/>
  <path d="M312 515c36 19 74 19 113 0" stroke="#232124" stroke-opacity=".22" stroke-width="7" stroke-linecap="round"/>
</svg>
